<svg xmlns="http://www.w3.org/2000/svg" width="135" height="41" viewBox="0 0 135 41" fill="none">
<rect x="0.5" y="1.39502" width="134" height="39" rx="6.5" fill="#1D1D1D"/>
<rect x="0.5" y="1.39502" width="134" height="39" rx="6.5" stroke="white"/>
<path d="M68.137 22.6464C65.785 22.6464 63.868 24.4354 63.868 26.8994C63.868 29.3484 65.785 31.1524 68.137 31.1524C70.49 31.1524 72.407 29.3484 72.407 26.8994C72.406 24.4354 70.489 22.6464 68.137 22.6464ZM68.137 29.4784C66.848 29.4784 65.737 28.4154 65.737 26.9004C65.737 25.3694 66.849 24.3224 68.137 24.3224C69.426 24.3224 70.537 25.3694 70.537 26.9004C70.537 28.4144 69.426 29.4784 68.137 29.4784ZM58.823 22.6464C56.471 22.6464 54.554 24.4354 54.554 26.8994C54.554 29.3484 56.471 31.1524 58.823 31.1524C61.176 31.1524 63.093 29.3484 63.093 26.8994C63.093 24.4354 61.176 22.6464 58.823 22.6464ZM58.823 29.4784C57.534 29.4784 56.423 28.4154 56.423 26.9004C56.423 25.3694 57.535 24.3224 58.823 24.3224C60.112 24.3224 61.223 25.3694 61.223 26.9004C61.224 28.4144 60.112 29.4784 58.823 29.4784ZM47.745 23.9524V25.7564H52.063C51.934 26.7714 51.596 27.5124 51.08 28.0274C50.452 28.6554 49.469 29.3484 47.745 29.3484C45.087 29.3484 43.009 27.2054 43.009 24.5474C43.009 21.8894 45.087 19.7464 47.745 19.7464C49.179 19.7464 50.226 20.3104 50.999 21.0354L52.272 19.7624C51.192 18.7314 49.759 17.9424 47.745 17.9424C44.104 17.9424 41.043 20.9064 41.043 24.5474C41.043 28.1884 44.104 31.1524 47.745 31.1524C49.71 31.1524 51.193 30.5074 52.352 29.2994C53.544 28.1074 53.915 26.4314 53.915 25.0784C53.915 24.6604 53.883 24.2734 53.818 23.9514H47.745V23.9524ZM93.053 25.3534C92.699 24.4034 91.619 22.6464 89.412 22.6464C87.221 22.6464 85.4 24.3704 85.4 26.8994C85.4 29.2834 87.205 31.1524 89.621 31.1524C91.57 31.1524 92.698 29.9604 93.166 29.2674L91.716 28.3004C91.233 29.0094 90.572 29.4764 89.621 29.4764C88.671 29.4764 87.994 29.0414 87.559 28.1874L93.246 25.8354L93.053 25.3534ZM87.253 26.7714C87.205 25.1274 88.526 24.2904 89.477 24.2904C90.218 24.2904 90.846 24.6614 91.056 25.1924L87.253 26.7714ZM82.63 30.8954H84.498V18.3944H82.63V30.8954ZM79.568 23.5974H79.504C79.085 23.0974 78.279 22.6464 77.265 22.6464C75.138 22.6464 73.189 24.5154 73.189 26.9164C73.189 29.3004 75.138 31.1534 77.265 31.1534C78.28 31.1534 79.085 30.7024 79.504 30.1874H79.568V30.7994C79.568 32.4264 78.698 33.2964 77.297 33.2964C76.153 33.2964 75.444 32.4754 75.154 31.7824L73.527 32.4594C73.994 33.5864 75.234 34.9724 77.297 34.9724C79.488 34.9724 81.341 33.6834 81.341 30.5414V22.9054H79.569V23.5974H79.568ZM77.426 29.4784C76.137 29.4784 75.058 28.3984 75.058 26.9164C75.058 25.4174 76.137 24.3224 77.426 24.3224C78.698 24.3224 79.697 25.4174 79.697 26.9164C79.697 28.3984 78.698 29.4784 77.426 29.4784ZM101.807 18.3944H97.336V30.8954H99.201V26.1594H101.806C103.874 26.1594 105.908 24.6624 105.908 22.2774C105.908 19.8924 103.875 18.3944 101.807 18.3944ZM101.855 24.4194H99.201V20.1344H101.855C103.25 20.1344 104.042 21.2894 104.042 22.2774C104.042 23.2454 103.25 24.4194 101.855 24.4194ZM113.387 22.6244C112.036 22.6244 110.637 23.2194 110.058 24.5384L111.714 25.2294C112.068 24.5384 112.728 24.3124 113.419 24.3124C114.384 24.3124 115.365 24.8914 115.381 25.9204V26.0494C115.043 25.8564 114.319 25.5674 113.435 25.5674C111.65 25.5674 109.832 26.5484 109.832 28.3814C109.832 30.0544 111.296 31.1314 112.936 31.1314C114.19 31.1314 114.882 30.5684 115.316 29.9084H115.38V30.8734H117.182V26.0804C117.183 23.8624 115.525 22.6244 113.387 22.6244ZM113.161 29.4754C112.551 29.4754 111.698 29.1694 111.698 28.4134C111.698 27.4484 112.76 27.0784 113.677 27.0784C114.496 27.0784 114.883 27.2554 115.381 27.4964C115.236 28.6554 114.239 29.4754 113.161 29.4754ZM123.744 22.8974L121.605 28.3174H121.541L119.321 22.8974H117.311L120.64 30.4724L118.742 34.6864H120.688L125.819 22.8974H123.744ZM106.938 30.8954H108.803V18.3944H106.938V30.8954Z" fill="white"/>
<path d="M47.4176 11.1377C47.4176 11.9757 47.1696 12.6427 46.6726 13.1407C46.1086 13.7327 45.3726 14.0287 44.4686 14.0287C43.6026 14.0287 42.8656 13.7287 42.2606 13.1287C41.6546 12.5277 41.3516 11.7837 41.3516 10.8957C41.3516 10.0067 41.6546 9.26272 42.2606 8.66272C42.8656 8.06172 43.6026 7.76172 44.4686 7.76172C44.8986 7.76172 45.3096 7.84572 45.6996 8.01272C46.0906 8.18072 46.4036 8.40372 46.6376 8.68272L46.1106 9.21072C45.7136 8.73572 45.1666 8.49872 44.4676 8.49872C43.8356 8.49872 43.2896 8.72072 42.8286 9.16472C42.3676 9.60872 42.1376 10.1857 42.1376 10.8947C42.1376 11.6037 42.3676 12.1807 42.8286 12.6247C43.2896 13.0687 43.8356 13.2907 44.4676 13.2907C45.1376 13.2907 45.6966 13.0677 46.1436 12.6207C46.4336 12.3297 46.6016 11.9247 46.6466 11.4057H44.4676V10.6847H47.3746C47.4046 10.8417 47.4176 10.9927 47.4176 11.1377Z" fill="white"/>
<path d="M52.0277 8.63178H49.2957V10.5338H51.7597V11.2548H49.2957V13.1568H52.0277V13.8948H48.5247V7.89478H52.0277V8.63178Z" fill="white"/>
<path d="M55.2785 13.8948H54.5075V8.63178H52.8315V7.89478H56.9545V8.63178H55.2785V13.8948Z" fill="white"/>
<path d="M59.9375 13.8948V7.89478H60.7085V13.8948H59.9375Z" fill="white"/>
<path d="M64.1277 13.8948H63.3567V8.63178H61.6807V7.89478H65.8037V8.63178H64.1277V13.8948Z" fill="white"/>
<path d="M73.6084 13.1198C73.0184 13.7258 72.2854 14.0288 71.4084 14.0288C70.5314 14.0288 69.7984 13.7258 69.2094 13.1198C68.6194 12.5138 68.3254 11.7718 68.3254 10.8948C68.3254 10.0178 68.6194 9.27577 69.2094 8.66977C69.7984 8.06377 70.5314 7.75977 71.4084 7.75977C72.2804 7.75977 73.0124 8.06477 73.6044 8.67377C74.1964 9.28277 74.4924 10.0228 74.4924 10.8948C74.4924 11.7718 74.1974 12.5138 73.6084 13.1198ZM69.7784 12.6168C70.2224 13.0668 70.7654 13.2908 71.4084 13.2908C72.0514 13.2908 72.5954 13.0658 73.0384 12.6168C73.4824 12.1668 73.7054 11.5928 73.7054 10.8948C73.7054 10.1968 73.4824 9.62277 73.0384 9.17277C72.5954 8.72277 72.0514 8.49877 71.4084 8.49877C70.7654 8.49877 70.2224 8.72377 69.7784 9.17277C69.3354 9.62277 69.1124 10.1968 69.1124 10.8948C69.1124 11.5928 69.3354 12.1668 69.7784 12.6168Z" fill="white"/>
<path d="M75.5745 13.8948V7.89478H76.5125L79.4285 12.5618H79.4615L79.4285 11.4058V7.89478H80.1995V13.8948H79.3945L76.3435 9.00078H76.3105L76.3435 10.1568V13.8948H75.5745Z" fill="white"/>
<path d="M47.4176 11.1377C47.4176 11.9757 47.1696 12.6427 46.6726 13.1407C46.1086 13.7327 45.3726 14.0287 44.4686 14.0287C43.6026 14.0287 42.8656 13.7287 42.2606 13.1287C41.6546 12.5277 41.3516 11.7837 41.3516 10.8957C41.3516 10.0067 41.6546 9.26272 42.2606 8.66272C42.8656 8.06172 43.6026 7.76172 44.4686 7.76172C44.8986 7.76172 45.3096 7.84572 45.6996 8.01272C46.0906 8.18072 46.4036 8.40372 46.6376 8.68272L46.1106 9.21072C45.7136 8.73572 45.1666 8.49872 44.4676 8.49872C43.8356 8.49872 43.2896 8.72072 42.8286 9.16472C42.3676 9.60872 42.1376 10.1857 42.1376 10.8947C42.1376 11.6037 42.3676 12.1807 42.8286 12.6247C43.2896 13.0687 43.8356 13.2907 44.4676 13.2907C45.1376 13.2907 45.6966 13.0677 46.1436 12.6207C46.4336 12.3297 46.6016 11.9247 46.6466 11.4057H44.4676V10.6847H47.3746C47.4046 10.8417 47.4176 10.9927 47.4176 11.1377Z" stroke="white" stroke-width="0.2" stroke-miterlimit="10"/>
<path d="M52.0277 8.63178H49.2957V10.5338H51.7597V11.2548H49.2957V13.1568H52.0277V13.8948H48.5247V7.89478H52.0277V8.63178Z" stroke="white" stroke-width="0.2" stroke-miterlimit="10"/>
<path d="M55.2785 13.8948H54.5075V8.63178H52.8315V7.89478H56.9545V8.63178H55.2785V13.8948Z" stroke="white" stroke-width="0.2" stroke-miterlimit="10"/>
<path d="M59.9375 13.8948V7.89478H60.7085V13.8948H59.9375Z" stroke="white" stroke-width="0.2" stroke-miterlimit="10"/>
<path d="M64.1277 13.8948H63.3567V8.63178H61.6807V7.89478H65.8037V8.63178H64.1277V13.8948Z" stroke="white" stroke-width="0.2" stroke-miterlimit="10"/>
<path d="M73.6084 13.1198C73.0184 13.7258 72.2854 14.0288 71.4084 14.0288C70.5314 14.0288 69.7984 13.7258 69.2094 13.1198C68.6194 12.5138 68.3254 11.7718 68.3254 10.8948C68.3254 10.0178 68.6194 9.27577 69.2094 8.66977C69.7984 8.06377 70.5314 7.75977 71.4084 7.75977C72.2804 7.75977 73.0124 8.06477 73.6044 8.67377C74.1964 9.28277 74.4924 10.0228 74.4924 10.8948C74.4924 11.7718 74.1974 12.5138 73.6084 13.1198ZM69.7784 12.6168C70.2224 13.0668 70.7654 13.2908 71.4084 13.2908C72.0514 13.2908 72.5954 13.0658 73.0384 12.6168C73.4824 12.1668 73.7054 11.5928 73.7054 10.8948C73.7054 10.1968 73.4824 9.62277 73.0384 9.17277C72.5954 8.72277 72.0514 8.49877 71.4084 8.49877C70.7654 8.49877 70.2224 8.72377 69.7784 9.17277C69.3354 9.62277 69.1124 10.1968 69.1124 10.8948C69.1124 11.5928 69.3354 12.1668 69.7784 12.6168Z" stroke="white" stroke-width="0.2" stroke-miterlimit="10"/>
<path d="M75.5745 13.8948V7.89478H76.5125L79.4285 12.5618H79.4615L79.4285 11.4058V7.89478H80.1995V13.8948H79.3945L76.3435 9.00078H76.3105L76.3435 10.1568V13.8948H75.5745Z" stroke="white" stroke-width="0.2" stroke-miterlimit="10"/>
<g>
<path d="M10.4357 8.43335C10.1447 8.74135 9.97266 9.21935 9.97266 9.83835V31.9543C9.97266 32.5744 10.1447 33.0514 10.4357 33.3594L10.5097 33.4314L22.8987 21.0424V20.8964V20.7504L10.5097 8.36035L10.4357 8.43335Z" fill="url(#paint0_linear_1067_10272)"/>
<path d="M27.0274 25.1731L22.8984 21.0421V20.8961V20.7501L27.0284 16.6201L27.1214 16.6731L32.0144 19.4531C33.4114 20.2471 33.4114 21.5461 32.0144 22.3411L27.1214 25.1211L27.0274 25.1731Z" fill="url(#paint1_linear_1067_10272)"/>
<g>
<path d="M27.1215 25.12L22.8975 20.896L10.4355 33.359C10.8955 33.847 11.6565 33.907 12.5135 33.421L27.1215 25.12Z" fill="url(#paint2_linear_1067_10272)"/>
</g>
<path d="M27.1215 16.6722L12.5135 8.37221C11.6565 7.88521 10.8955 7.94621 10.4355 8.43421L22.8985 20.8972L27.1215 16.6722Z" fill="url(#paint3_linear_1067_10272)"/>
</g>
<defs>























<linearGradient id="paint0_linear_1067_10272" x1="21.8005" y1="9.60435" x2="5.01846" y2="26.3864" gradientUnits="userSpaceOnUse">
<stop stop-color="#00A0FF"/>
<stop offset="0.0066" stop-color="#00A1FF"/>
<stop offset="0.2601" stop-color="#00BEFF"/>
<stop offset="0.5122" stop-color="#00D2FF"/>
<stop offset="0.7604" stop-color="#00DFFF"/>
<stop offset="1" stop-color="#00E3FF"/>
</linearGradient>
<linearGradient id="paint1_linear_1067_10272" x1="33.8329" y1="20.8961" x2="9.63704" y2="20.8961" gradientUnits="userSpaceOnUse">
<stop stop-color="#FFE000"/>
<stop offset="0.4087" stop-color="#FFBD00"/>
<stop offset="0.7754" stop-color="#FFA500"/>
<stop offset="1" stop-color="#FF9C00"/>
</linearGradient>
<linearGradient id="paint2_linear_1067_10272" x1="24.8276" y1="23.1899" x2="2.06915" y2="45.9484" gradientUnits="userSpaceOnUse">
<stop stop-color="#FF3A44"/>
<stop offset="1" stop-color="#C31162"/>
</linearGradient>
<linearGradient id="paint3_linear_1067_10272" x1="7.29695" y1="1.07201" x2="17.4592" y2="11.2343" gradientUnits="userSpaceOnUse">
<stop stop-color="#32A071"/>
<stop offset="0.0685" stop-color="#2DA771"/>
<stop offset="0.4762" stop-color="#15CF74"/>
<stop offset="0.8009" stop-color="#06E775"/>
<stop offset="1" stop-color="#00F076"/>
</linearGradient>
</defs>
</svg>